<?xml version="1.0" encoding="UTF-8" standalone="no"?>
<!DOCTYPE svg PUBLIC "-//W3C//DTD SVG 1.1//EN"
 "http://www.w3.org/Graphics/SVG/1.1/DTD/svg11.dtd">
<!-- Generated by graphviz version 2.44.2~dev.20200908.1456 (20200908.1456)
 -->
<!-- Title: G Pages: 1 -->
<svg width="970pt" height="883pt"
 viewBox="0.00 0.00 970.20 882.89" xmlns="http://www.w3.org/2000/svg" xmlns:xlink="http://www.w3.org/1999/xlink">
<g id="graph0" class="graph" transform="scale(1 1) rotate(0) translate(21.6 861.29)">
<title>G</title>
<polygon fill="#111111" stroke="transparent" points="-21.6,21.6 -21.6,-861.29 948.6,-861.29 948.6,21.6 -21.6,21.6"/>
<!-- index.js -->
<g id="node1" class="node">
<title>index.js</title>
<path fill="none" stroke="#c6c5fe" d="M57.33,-799.69C57.33,-799.69 7.67,-799.69 7.67,-799.69 3.83,-799.69 0,-795.86 0,-792.02 0,-792.02 0,-784.36 0,-784.36 0,-780.52 3.83,-776.69 7.67,-776.69 7.67,-776.69 57.33,-776.69 57.33,-776.69 61.17,-776.69 65,-780.52 65,-784.36 65,-784.36 65,-792.02 65,-792.02 65,-795.86 61.17,-799.69 57.33,-799.69"/>
<text text-anchor="middle" x="32.5" y="-784.49" font-family="Arial" font-size="14.00" fill="#c6c5fe">index.js</text>
</g>
<!-- messages.js -->
<g id="node2" class="node">
<title>messages.js</title>
<path fill="none" stroke="#cfffac" d="M202.83,-839.69C202.83,-839.69 120.17,-839.69 120.17,-839.69 116.33,-839.69 112.5,-835.86 112.5,-832.02 112.5,-832.02 112.5,-824.36 112.5,-824.36 112.5,-820.52 116.33,-816.69 120.17,-816.69 120.17,-816.69 202.83,-816.69 202.83,-816.69 206.67,-816.69 210.5,-820.52 210.5,-824.36 210.5,-824.36 210.5,-832.02 210.5,-832.02 210.5,-835.86 206.67,-839.69 202.83,-839.69"/>
<text text-anchor="middle" x="161.5" y="-824.49" font-family="Arial" font-size="14.00" fill="#cfffac">messages.js</text>
</g>
<!-- index.js&#45;&gt;messages.js -->
<g id="edge1" class="edge">
<title>index.js:&#45;&gt;messages.js:</title>
<path fill="none" stroke="#757575" d="M65.22,-798.18C79.94,-802.82 97.74,-808.42 113.95,-813.53"/>
<polygon fill="#757575" stroke="#757575" points="113.2,-816.96 123.79,-816.63 115.3,-810.29 113.2,-816.96"/>
</g>
<!-- util.js -->
<g id="node3" class="node">
<title>util.js</title>
<path fill="none" stroke="#cfffac" d="M919.33,-414.69C919.33,-414.69 880.67,-414.69 880.67,-414.69 876.83,-414.69 873,-410.86 873,-407.02 873,-407.02 873,-399.36 873,-399.36 873,-395.52 876.83,-391.69 880.67,-391.69 880.67,-391.69 919.33,-391.69 919.33,-391.69 923.17,-391.69 927,-395.52 927,-399.36 927,-399.36 927,-407.02 927,-407.02 927,-410.86 923.17,-414.69 919.33,-414.69"/>
<text text-anchor="middle" x="900" y="-399.49" font-family="Arial" font-size="14.00" fill="#cfffac">util.js</text>
</g>
<!-- index.js&#45;&gt;util.js -->
<g id="edge2" class="edge">
<title>index.js:&#45;&gt;util.js:</title>
<path fill="none" stroke="#757575" d="M65.21,-788.19C119.03,-788.19 231.71,-788.19 327,-788.19 327,-788.19 327,-788.19 627.5,-788.19 679.32,-788.19 826.11,-738.49 837,-726.19 876.98,-681.01 893.2,-490.34 897.65,-425.15"/>
<polygon fill="#757575" stroke="#757575" points="901.16,-425.03 898.32,-414.82 894.18,-424.57 901.16,-425.03"/>
</g>
<!-- validator/index.js -->
<g id="node4" class="node">
<title>validator/index.js</title>
<path fill="none" stroke="#c6c5fe" d="M214.33,-457.69C214.33,-457.69 108.67,-457.69 108.67,-457.69 104.83,-457.69 101,-453.86 101,-450.02 101,-450.02 101,-442.36 101,-442.36 101,-438.52 104.83,-434.69 108.67,-434.69 108.67,-434.69 214.33,-434.69 214.33,-434.69 218.17,-434.69 222,-438.52 222,-442.36 222,-442.36 222,-450.02 222,-450.02 222,-453.86 218.17,-457.69 214.33,-457.69"/>
<text text-anchor="middle" x="161.5" y="-442.49" font-family="Arial" font-size="14.00" fill="#c6c5fe">validator/index.js</text>
</g>
<!-- index.js&#45;&gt;validator/index.js -->
<g id="edge3" class="edge">
<title>index.js:&#45;&gt;validator/index.js:</title>
<path fill="none" stroke="#757575" d="M37.87,-776.42C56.38,-726.57 128.45,-532.49 152.58,-467.52"/>
<polygon fill="#757575" stroke="#757575" points="155.95,-468.51 156.15,-457.91 149.38,-466.07 155.95,-468.51"/>
</g>
<!-- validator/any.js -->
<g id="node12" class="node">
<title>validator/any.js</title>
<path fill="none" stroke="#c6c5fe" d="M374.83,-600.69C374.83,-600.69 281.17,-600.69 281.17,-600.69 277.33,-600.69 273.5,-596.86 273.5,-593.02 273.5,-593.02 273.5,-585.36 273.5,-585.36 273.5,-581.52 277.33,-577.69 281.17,-577.69 281.17,-577.69 374.83,-577.69 374.83,-577.69 378.67,-577.69 382.5,-581.52 382.5,-585.36 382.5,-585.36 382.5,-593.02 382.5,-593.02 382.5,-596.86 378.67,-600.69 374.83,-600.69"/>
<text text-anchor="middle" x="328" y="-585.49" font-family="Arial" font-size="14.00" fill="#c6c5fe">validator/any.js</text>
</g>
<!-- validator/index.js&#45;&gt;validator/any.js -->
<g id="edge29" class="edge">
<title>validator/index.js:&#45;&gt;validator/any.js:</title>
<path fill="none" stroke="#757575" d="M168.42,-457.87C181.3,-482.13 214.3,-538.22 258,-568.19 260.74,-570.07 263.65,-571.78 266.66,-573.34"/>
<polygon fill="#757575" stroke="#757575" points="265.42,-576.62 275.97,-577.6 268.33,-570.26 265.42,-576.62"/>
</g>
<!-- validator/array.js -->
<g id="node13" class="node">
<title>validator/array.js</title>
<path fill="none" stroke="#c6c5fe" d="M379.33,-559.69C379.33,-559.69 276.67,-559.69 276.67,-559.69 272.83,-559.69 269,-555.86 269,-552.02 269,-552.02 269,-544.36 269,-544.36 269,-540.52 272.83,-536.69 276.67,-536.69 276.67,-536.69 379.33,-536.69 379.33,-536.69 383.17,-536.69 387,-540.52 387,-544.36 387,-544.36 387,-552.02 387,-552.02 387,-555.86 383.17,-559.69 379.33,-559.69"/>
<text text-anchor="middle" x="328" y="-544.49" font-family="Arial" font-size="14.00" fill="#c6c5fe">validator/array.js</text>
</g>
<!-- validator/index.js&#45;&gt;validator/array.js -->
<g id="edge30" class="edge">
<title>validator/index.js:&#45;&gt;validator/array.js:</title>
<path fill="none" stroke="#757575" d="M173.12,-457.83C189.65,-475.29 223.27,-508.24 258,-527.19 261.88,-529.31 265.99,-531.24 270.21,-532.99"/>
<polygon fill="#757575" stroke="#757575" points="268.97,-536.26 279.56,-536.57 271.47,-529.73 268.97,-536.26"/>
</g>
<!-- validator/boolean.js -->
<g id="node14" class="node">
<title>validator/boolean.js</title>
<path fill="none" stroke="#c6c5fe" d="M389.33,-518.69C389.33,-518.69 266.67,-518.69 266.67,-518.69 262.83,-518.69 259,-514.86 259,-511.02 259,-511.02 259,-503.36 259,-503.36 259,-499.52 262.83,-495.69 266.67,-495.69 266.67,-495.69 389.33,-495.69 389.33,-495.69 393.17,-495.69 397,-499.52 397,-503.36 397,-503.36 397,-511.02 397,-511.02 397,-514.86 393.17,-518.69 389.33,-518.69"/>
<text text-anchor="middle" x="328" y="-503.49" font-family="Arial" font-size="14.00" fill="#c6c5fe">validator/boolean.js</text>
</g>
<!-- validator/index.js&#45;&gt;validator/boolean.js -->
<g id="edge31" class="edge">
<title>validator/index.js:&#45;&gt;validator/boolean.js:</title>
<path fill="none" stroke="#757575" d="M188.16,-457.77C207.23,-466.17 233.99,-477.53 258,-486.19 264.03,-488.36 270.41,-490.51 276.75,-492.55"/>
<polygon fill="#757575" stroke="#757575" points="276.05,-496 286.64,-495.66 278.15,-489.32 276.05,-496"/>
</g>
<!-- validator/date.js -->
<g id="node15" class="node">
<title>validator/date.js</title>
<path fill="none" stroke="#c6c5fe" d="M377.83,-477.69C377.83,-477.69 278.17,-477.69 278.17,-477.69 274.33,-477.69 270.5,-473.86 270.5,-470.02 270.5,-470.02 270.5,-462.36 270.5,-462.36 270.5,-458.52 274.33,-454.69 278.17,-454.69 278.17,-454.69 377.83,-454.69 377.83,-454.69 381.67,-454.69 385.5,-458.52 385.5,-462.36 385.5,-462.36 385.5,-470.02 385.5,-470.02 385.5,-473.86 381.67,-477.69 377.83,-477.69"/>
<text text-anchor="middle" x="328" y="-462.49" font-family="Arial" font-size="14.00" fill="#c6c5fe">validator/date.js</text>
</g>
<!-- validator/index.js&#45;&gt;validator/date.js -->
<g id="edge32" class="edge">
<title>validator/index.js:&#45;&gt;validator/date.js:</title>
<path fill="none" stroke="#757575" d="M222.35,-453.47C234.75,-454.97 247.88,-456.57 260.5,-458.1"/>
<polygon fill="#757575" stroke="#757575" points="260.13,-461.59 270.48,-459.32 260.97,-454.64 260.13,-461.59"/>
</g>
<!-- validator/enum.js -->
<g id="node16" class="node">
<title>validator/enum.js</title>
<path fill="none" stroke="#c6c5fe" d="M381.33,-395.69C381.33,-395.69 274.67,-395.69 274.67,-395.69 270.83,-395.69 267,-391.86 267,-388.02 267,-388.02 267,-380.36 267,-380.36 267,-376.52 270.83,-372.69 274.67,-372.69 274.67,-372.69 381.33,-372.69 381.33,-372.69 385.17,-372.69 389,-376.52 389,-380.36 389,-380.36 389,-388.02 389,-388.02 389,-391.86 385.17,-395.69 381.33,-395.69"/>
<text text-anchor="middle" x="328" y="-380.49" font-family="Arial" font-size="14.00" fill="#c6c5fe">validator/enum.js</text>
</g>
<!-- validator/index.js&#45;&gt;validator/enum.js -->
<g id="edge33" class="edge">
<title>validator/index.js:&#45;&gt;validator/enum.js:</title>
<path fill="none" stroke="#757575" d="M186.48,-434.59C205.58,-425.61 233.14,-413.21 258,-404.19 263.2,-402.3 268.67,-400.47 274.17,-398.72"/>
<polygon fill="#757575" stroke="#757575" points="275.49,-401.98 284.02,-395.69 273.43,-395.29 275.49,-401.98"/>
</g>
<!-- validator/float.js -->
<g id="node17" class="node">
<title>validator/float.js</title>
<path fill="none" stroke="#c6c5fe" d="M377.33,-354.69C377.33,-354.69 278.67,-354.69 278.67,-354.69 274.83,-354.69 271,-350.86 271,-347.02 271,-347.02 271,-339.36 271,-339.36 271,-335.52 274.83,-331.69 278.67,-331.69 278.67,-331.69 377.33,-331.69 377.33,-331.69 381.17,-331.69 385,-335.52 385,-339.36 385,-339.36 385,-347.02 385,-347.02 385,-350.86 381.17,-354.69 377.33,-354.69"/>
<text text-anchor="middle" x="328" y="-339.49" font-family="Arial" font-size="14.00" fill="#c6c5fe">validator/float.js</text>
</g>
<!-- validator/index.js&#45;&gt;validator/float.js -->
<g id="edge34" class="edge">
<title>validator/index.js:&#45;&gt;validator/float.js:</title>
<path fill="none" stroke="#757575" d="M172.76,-434.48C189.07,-416.57 222.7,-382.42 258,-363.19 261.11,-361.5 264.37,-359.94 267.72,-358.49"/>
<polygon fill="#757575" stroke="#757575" points="269.28,-361.64 277.33,-354.75 266.74,-355.12 269.28,-361.64"/>
</g>
<!-- validator/integer.js -->
<g id="node18" class="node">
<title>validator/integer.js</title>
<path fill="none" stroke="#c6c5fe" d="M385.83,-313.69C385.83,-313.69 270.17,-313.69 270.17,-313.69 266.33,-313.69 262.5,-309.86 262.5,-306.02 262.5,-306.02 262.5,-298.36 262.5,-298.36 262.5,-294.52 266.33,-290.69 270.17,-290.69 270.17,-290.69 385.83,-290.69 385.83,-290.69 389.67,-290.69 393.5,-294.52 393.5,-298.36 393.5,-298.36 393.5,-306.02 393.5,-306.02 393.5,-309.86 389.67,-313.69 385.83,-313.69"/>
<text text-anchor="middle" x="328" y="-298.49" font-family="Arial" font-size="14.00" fill="#c6c5fe">validator/integer.js</text>
</g>
<!-- validator/index.js&#45;&gt;validator/integer.js -->
<g id="edge35" class="edge">
<title>validator/index.js:&#45;&gt;validator/integer.js:</title>
<path fill="none" stroke="#757575" d="M168.14,-434.65C180.73,-410.1 213.54,-352.49 258,-322.19 260.12,-320.75 262.34,-319.4 264.64,-318.16"/>
<polygon fill="#757575" stroke="#757575" points="266.27,-321.26 273.81,-313.81 263.27,-314.93 266.27,-321.26"/>
</g>
<!-- validator/method.js -->
<g id="node19" class="node">
<title>validator/method.js</title>
<path fill="none" stroke="#c6c5fe" d="M387.83,-272.69C387.83,-272.69 268.17,-272.69 268.17,-272.69 264.33,-272.69 260.5,-268.86 260.5,-265.02 260.5,-265.02 260.5,-257.36 260.5,-257.36 260.5,-253.52 264.33,-249.69 268.17,-249.69 268.17,-249.69 387.83,-249.69 387.83,-249.69 391.67,-249.69 395.5,-253.52 395.5,-257.36 395.5,-257.36 395.5,-265.02 395.5,-265.02 395.5,-268.86 391.67,-272.69 387.83,-272.69"/>
<text text-anchor="middle" x="328" y="-257.49" font-family="Arial" font-size="14.00" fill="#c6c5fe">validator/method.js</text>
</g>
<!-- validator/index.js&#45;&gt;validator/method.js -->
<g id="edge36" class="edge">
<title>validator/index.js:&#45;&gt;validator/method.js:</title>
<path fill="none" stroke="#757575" d="M165.86,-434.58C175.19,-404.45 204.31,-323.22 258,-281.19 259.58,-279.95 261.24,-278.79 262.96,-277.7"/>
<polygon fill="#757575" stroke="#757575" points="264.83,-280.66 271.96,-272.82 261.5,-274.51 264.83,-280.66"/>
</g>
<!-- validator/number.js -->
<g id="node20" class="node">
<title>validator/number.js</title>
<path fill="none" stroke="#c6c5fe" d="M387.83,-231.69C387.83,-231.69 268.17,-231.69 268.17,-231.69 264.33,-231.69 260.5,-227.86 260.5,-224.02 260.5,-224.02 260.5,-216.36 260.5,-216.36 260.5,-212.52 264.33,-208.69 268.17,-208.69 268.17,-208.69 387.83,-208.69 387.83,-208.69 391.67,-208.69 395.5,-212.52 395.5,-216.36 395.5,-216.36 395.5,-224.02 395.5,-224.02 395.5,-227.86 391.67,-231.69 387.83,-231.69"/>
<text text-anchor="middle" x="328" y="-216.49" font-family="Arial" font-size="14.00" fill="#c6c5fe">validator/number.js</text>
</g>
<!-- validator/index.js&#45;&gt;validator/number.js -->
<g id="edge37" class="edge">
<title>validator/index.js:&#45;&gt;validator/number.js:</title>
<path fill="none" stroke="#757575" d="M164.42,-434.6C170.82,-399.68 194.74,-294.5 258,-240.19 259.33,-239.05 260.73,-237.97 262.18,-236.95"/>
<polygon fill="#757575" stroke="#757575" points="264.12,-239.87 270.95,-231.77 260.56,-233.84 264.12,-239.87"/>
</g>
<!-- validator/object.js -->
<g id="node21" class="node">
<title>validator/object.js</title>
<path fill="none" stroke="#c6c5fe" d="M383.33,-190.69C383.33,-190.69 272.67,-190.69 272.67,-190.69 268.83,-190.69 265,-186.86 265,-183.02 265,-183.02 265,-175.36 265,-175.36 265,-171.52 268.83,-167.69 272.67,-167.69 272.67,-167.69 383.33,-167.69 383.33,-167.69 387.17,-167.69 391,-171.52 391,-175.36 391,-175.36 391,-183.02 391,-183.02 391,-186.86 387.17,-190.69 383.33,-190.69"/>
<text text-anchor="middle" x="328" y="-175.49" font-family="Arial" font-size="14.00" fill="#c6c5fe">validator/object.js</text>
</g>
<!-- validator/index.js&#45;&gt;validator/object.js -->
<g id="edge38" class="edge">
<title>validator/index.js:&#45;&gt;validator/object.js:</title>
<path fill="none" stroke="#757575" d="M163.43,-434.63C167.22,-395.4 184.97,-266.14 258,-199.19 259.12,-198.16 260.29,-197.19 261.5,-196.26"/>
<polygon fill="#757575" stroke="#757575" points="263.47,-199.16 270.05,-190.85 259.72,-193.25 263.47,-199.16"/>
</g>
<!-- validator/pattern.js -->
<g id="node22" class="node">
<title>validator/pattern.js</title>
<path fill="none" stroke="#c6c5fe" d="M385.83,-149.69C385.83,-149.69 270.17,-149.69 270.17,-149.69 266.33,-149.69 262.5,-145.86 262.5,-142.02 262.5,-142.02 262.5,-134.36 262.5,-134.36 262.5,-130.52 266.33,-126.69 270.17,-126.69 270.17,-126.69 385.83,-126.69 385.83,-126.69 389.67,-126.69 393.5,-130.52 393.5,-134.36 393.5,-134.36 393.5,-142.02 393.5,-142.02 393.5,-145.86 389.67,-149.69 385.83,-149.69"/>
<text text-anchor="middle" x="328" y="-134.49" font-family="Arial" font-size="14.00" fill="#c6c5fe">validator/pattern.js</text>
</g>
<!-- validator/index.js&#45;&gt;validator/pattern.js -->
<g id="edge39" class="edge">
<title>validator/index.js:&#45;&gt;validator/pattern.js:</title>
<path fill="none" stroke="#757575" d="M162.71,-434.6C164.14,-391.38 175.08,-238.01 258,-158.19 258.96,-157.27 259.96,-156.38 261,-155.54"/>
<polygon fill="#757575" stroke="#757575" points="263.16,-158.31 269.54,-149.85 259.28,-152.48 263.16,-158.31"/>
</g>
<!-- validator/regexp.js -->
<g id="node23" class="node">
<title>validator/regexp.js</title>
<path fill="none" stroke="#c6c5fe" d="M385.83,-723.69C385.83,-723.69 270.17,-723.69 270.17,-723.69 266.33,-723.69 262.5,-719.86 262.5,-716.02 262.5,-716.02 262.5,-708.36 262.5,-708.36 262.5,-704.52 266.33,-700.69 270.17,-700.69 270.17,-700.69 385.83,-700.69 385.83,-700.69 389.67,-700.69 393.5,-704.52 393.5,-708.36 393.5,-708.36 393.5,-716.02 393.5,-716.02 393.5,-719.86 389.67,-723.69 385.83,-723.69"/>
<text text-anchor="middle" x="328" y="-708.49" font-family="Arial" font-size="14.00" fill="#c6c5fe">validator/regexp.js</text>
</g>
<!-- validator/index.js&#45;&gt;validator/regexp.js -->
<g id="edge40" class="edge">
<title>validator/index.js:&#45;&gt;validator/regexp.js:</title>
<path fill="none" stroke="#757575" d="M163.52,-457.9C167.58,-497.02 186,-624.48 258,-691.19 259.52,-692.59 261.12,-693.9 262.8,-695.13"/>
<polygon fill="#757575" stroke="#757575" points="261.36,-698.35 271.73,-700.54 264.99,-692.36 261.36,-698.35"/>
</g>
<!-- validator/required.js -->
<g id="node24" class="node">
<title>validator/required.js</title>
<path fill="none" stroke="#c6c5fe" d="M390.33,-436.69C390.33,-436.69 265.67,-436.69 265.67,-436.69 261.83,-436.69 258,-432.86 258,-429.02 258,-429.02 258,-421.36 258,-421.36 258,-417.52 261.83,-413.69 265.67,-413.69 265.67,-413.69 390.33,-413.69 390.33,-413.69 394.17,-413.69 398,-417.52 398,-421.36 398,-421.36 398,-429.02 398,-429.02 398,-432.86 394.17,-436.69 390.33,-436.69"/>
<text text-anchor="middle" x="328" y="-421.49" font-family="Arial" font-size="14.00" fill="#c6c5fe">validator/required.js</text>
</g>
<!-- validator/index.js&#45;&gt;validator/required.js -->
<g id="edge41" class="edge">
<title>validator/index.js:&#45;&gt;validator/required.js:</title>
<path fill="none" stroke="#757575" d="M222.35,-438.55C230.67,-437.49 239.32,-436.38 247.93,-435.28"/>
<polygon fill="#757575" stroke="#757575" points="248.51,-438.74 257.98,-434 247.62,-431.8 248.51,-438.74"/>
</g>
<!-- validator/string.js -->
<g id="node25" class="node">
<title>validator/string.js</title>
<path fill="none" stroke="#c6c5fe" d="M381.33,-682.69C381.33,-682.69 274.67,-682.69 274.67,-682.69 270.83,-682.69 267,-678.86 267,-675.02 267,-675.02 267,-667.36 267,-667.36 267,-663.52 270.83,-659.69 274.67,-659.69 274.67,-659.69 381.33,-659.69 381.33,-659.69 385.17,-659.69 389,-663.52 389,-667.36 389,-667.36 389,-675.02 389,-675.02 389,-678.86 385.17,-682.69 381.33,-682.69"/>
<text text-anchor="middle" x="328" y="-667.49" font-family="Arial" font-size="14.00" fill="#c6c5fe">validator/string.js</text>
</g>
<!-- validator/index.js&#45;&gt;validator/string.js -->
<g id="edge42" class="edge">
<title>validator/index.js:&#45;&gt;validator/string.js:</title>
<path fill="none" stroke="#757575" d="M164.54,-457.87C171.2,-492.6 195.65,-596.14 258,-650.19 259.77,-651.72 261.65,-653.14 263.61,-654.46"/>
<polygon fill="#757575" stroke="#757575" points="262.24,-657.71 272.67,-659.6 265.7,-651.62 262.24,-657.71"/>
</g>
<!-- validator/type.js -->
<g id="node26" class="node">
<title>validator/type.js</title>
<path fill="none" stroke="#c6c5fe" d="M377.33,-641.69C377.33,-641.69 278.67,-641.69 278.67,-641.69 274.83,-641.69 271,-637.86 271,-634.02 271,-634.02 271,-626.36 271,-626.36 271,-622.52 274.83,-618.69 278.67,-618.69 278.67,-618.69 377.33,-618.69 377.33,-618.69 381.17,-618.69 385,-622.52 385,-626.36 385,-626.36 385,-634.02 385,-634.02 385,-637.86 381.17,-641.69 377.33,-641.69"/>
<text text-anchor="middle" x="328" y="-626.49" font-family="Arial" font-size="14.00" fill="#c6c5fe">validator/type.js</text>
</g>
<!-- validator/index.js&#45;&gt;validator/type.js -->
<g id="edge43" class="edge">
<title>validator/index.js:&#45;&gt;validator/type.js:</title>
<path fill="none" stroke="#757575" d="M166.08,-458.06C175.73,-488.07 205.22,-567.54 258,-609.19 260.18,-610.91 262.51,-612.49 264.93,-613.95"/>
<polygon fill="#757575" stroke="#757575" points="263.57,-617.19 274.06,-618.66 266.78,-610.96 263.57,-617.19"/>
</g>
<!-- rule/enum.js -->
<g id="node5" class="node">
<title>rule/enum.js</title>
<path fill="none" stroke="#c6c5fe" d="M665.33,-296.69C665.33,-296.69 587.67,-296.69 587.67,-296.69 583.83,-296.69 580,-292.86 580,-289.02 580,-289.02 580,-281.36 580,-281.36 580,-277.52 583.83,-273.69 587.67,-273.69 587.67,-273.69 665.33,-273.69 665.33,-273.69 669.17,-273.69 673,-277.52 673,-281.36 673,-281.36 673,-289.02 673,-289.02 673,-292.86 669.17,-296.69 665.33,-296.69"/>
<text text-anchor="middle" x="626.5" y="-281.49" font-family="Arial" font-size="14.00" fill="#c6c5fe">rule/enum.js</text>
</g>
<!-- rule/enum.js&#45;&gt;util.js -->
<g id="edge4" class="edge">
<title>rule/enum.js:&#45;&gt;util.js:</title>
<path fill="none" stroke="#757575" d="M673.04,-282.03C717.97,-281.07 786.98,-285.57 837,-316.19 862.42,-331.75 880.36,-362.06 890.19,-382.47"/>
<polygon fill="#757575" stroke="#757575" points="887.02,-383.95 894.36,-391.58 893.38,-381.03 887.02,-383.95"/>
</g>
<!-- rule/index.js -->
<g id="node6" class="node">
<title>rule/index.js</title>
<path fill="none" stroke="#c6c5fe" d="M518.33,-415.69C518.33,-415.69 441.67,-415.69 441.67,-415.69 437.83,-415.69 434,-411.86 434,-408.02 434,-408.02 434,-400.36 434,-400.36 434,-396.52 437.83,-392.69 441.67,-392.69 441.67,-392.69 518.33,-392.69 518.33,-392.69 522.17,-392.69 526,-396.52 526,-400.36 526,-400.36 526,-408.02 526,-408.02 526,-411.86 522.17,-415.69 518.33,-415.69"/>
<text text-anchor="middle" x="480" y="-400.49" font-family="Arial" font-size="14.00" fill="#c6c5fe">rule/index.js</text>
</g>
<!-- rule/index.js&#45;&gt;rule/enum.js -->
<g id="edge5" class="edge">
<title>rule/index.js:&#45;&gt;rule/enum.js:</title>
<path fill="none" stroke="#757575" d="M487.41,-392.56C499.37,-371.92 527.06,-328.84 562,-305.19 564.73,-303.34 567.64,-301.66 570.65,-300.13"/>
<polygon fill="#757575" stroke="#757575" points="572.24,-303.25 579.93,-295.96 569.38,-296.86 572.24,-303.25"/>
</g>
<!-- rule/pattern.js -->
<g id="node7" class="node">
<title>rule/pattern.js</title>
<path fill="none" stroke="#c6c5fe" d="M824.83,-414.69C824.83,-414.69 739.17,-414.69 739.17,-414.69 735.33,-414.69 731.5,-410.86 731.5,-407.02 731.5,-407.02 731.5,-399.36 731.5,-399.36 731.5,-395.52 735.33,-391.69 739.17,-391.69 739.17,-391.69 824.83,-391.69 824.83,-391.69 828.67,-391.69 832.5,-395.52 832.5,-399.36 832.5,-399.36 832.5,-407.02 832.5,-407.02 832.5,-410.86 828.67,-414.69 824.83,-414.69"/>
<text text-anchor="middle" x="782" y="-399.49" font-family="Arial" font-size="14.00" fill="#c6c5fe">rule/pattern.js</text>
</g>
<!-- rule/index.js&#45;&gt;rule/pattern.js -->
<g id="edge6" class="edge">
<title>rule/index.js:&#45;&gt;rule/pattern.js:</title>
<path fill="none" stroke="#757575" d="M526.24,-404.04C578.28,-403.87 663.91,-403.58 721.36,-403.39"/>
<polygon fill="#757575" stroke="#757575" points="721.4,-406.89 731.39,-403.36 721.38,-399.89 721.4,-406.89"/>
</g>
<!-- rule/range.js -->
<g id="node8" class="node">
<title>rule/range.js</title>
<path fill="none" stroke="#c6c5fe" d="M821.33,-373.69C821.33,-373.69 742.67,-373.69 742.67,-373.69 738.83,-373.69 735,-369.86 735,-366.02 735,-366.02 735,-358.36 735,-358.36 735,-354.52 738.83,-350.69 742.67,-350.69 742.67,-350.69 821.33,-350.69 821.33,-350.69 825.17,-350.69 829,-354.52 829,-358.36 829,-358.36 829,-366.02 829,-366.02 829,-369.86 825.17,-373.69 821.33,-373.69"/>
<text text-anchor="middle" x="782" y="-358.49" font-family="Arial" font-size="14.00" fill="#c6c5fe">rule/range.js</text>
</g>
<!-- rule/index.js&#45;&gt;rule/range.js -->
<g id="edge7" class="edge">
<title>rule/index.js:&#45;&gt;rule/range.js:</title>
<path fill="none" stroke="#757575" d="M526.24,-397.86C579.36,-390.42 667.49,-378.08 724.9,-370.04"/>
<polygon fill="#757575" stroke="#757575" points="725.48,-373.5 734.9,-368.64 724.51,-366.56 725.48,-373.5"/>
</g>
<!-- rule/required.js -->
<g id="node9" class="node">
<title>rule/required.js</title>
<path fill="none" stroke="#c6c5fe" d="M829.33,-455.69C829.33,-455.69 734.67,-455.69 734.67,-455.69 730.83,-455.69 727,-451.86 727,-448.02 727,-448.02 727,-440.36 727,-440.36 727,-436.52 730.83,-432.69 734.67,-432.69 734.67,-432.69 829.33,-432.69 829.33,-432.69 833.17,-432.69 837,-436.52 837,-440.36 837,-440.36 837,-448.02 837,-448.02 837,-451.86 833.17,-455.69 829.33,-455.69"/>
<text text-anchor="middle" x="782" y="-440.49" font-family="Arial" font-size="14.00" fill="#c6c5fe">rule/required.js</text>
</g>
<!-- rule/index.js&#45;&gt;rule/required.js -->
<g id="edge8" class="edge">
<title>rule/index.js:&#45;&gt;rule/required.js:</title>
<path fill="none" stroke="#757575" d="M526.34,-412.46C537.95,-414.46 550.42,-416.5 562,-418.19 613.91,-425.75 672.99,-432.67 716.69,-437.46"/>
<polygon fill="#757575" stroke="#757575" points="716.57,-440.97 726.9,-438.57 717.33,-434.01 716.57,-440.97"/>
</g>
<!-- rule/type.js -->
<g id="node10" class="node">
<title>rule/type.js</title>
<path fill="none" stroke="#c6c5fe" d="M661.33,-493.69C661.33,-493.69 591.67,-493.69 591.67,-493.69 587.83,-493.69 584,-489.86 584,-486.02 584,-486.02 584,-478.36 584,-478.36 584,-474.52 587.83,-470.69 591.67,-470.69 591.67,-470.69 661.33,-470.69 661.33,-470.69 665.17,-470.69 669,-474.52 669,-478.36 669,-478.36 669,-486.02 669,-486.02 669,-489.86 665.17,-493.69 661.33,-493.69"/>
<text text-anchor="middle" x="626.5" y="-478.49" font-family="Arial" font-size="14.00" fill="#c6c5fe">rule/type.js</text>
</g>
<!-- rule/index.js&#45;&gt;rule/type.js -->
<g id="edge9" class="edge">
<title>rule/index.js:&#45;&gt;rule/type.js:</title>
<path fill="none" stroke="#757575" d="M497.22,-415.86C513.21,-427.05 538.58,-444.01 562,-456.19 569.13,-459.9 576.92,-463.46 584.52,-466.7"/>
<polygon fill="#757575" stroke="#757575" points="583.4,-470.02 593.98,-470.6 586.07,-463.55 583.4,-470.02"/>
</g>
<!-- rule/whitespace.js -->
<g id="node11" class="node">
<title>rule/whitespace.js</title>
<path fill="none" stroke="#c6c5fe" d="M683.33,-337.69C683.33,-337.69 569.67,-337.69 569.67,-337.69 565.83,-337.69 562,-333.86 562,-330.02 562,-330.02 562,-322.36 562,-322.36 562,-318.52 565.83,-314.69 569.67,-314.69 569.67,-314.69 683.33,-314.69 683.33,-314.69 687.17,-314.69 691,-318.52 691,-322.36 691,-322.36 691,-330.02 691,-330.02 691,-333.86 687.17,-337.69 683.33,-337.69"/>
<text text-anchor="middle" x="626.5" y="-322.49" font-family="Arial" font-size="14.00" fill="#c6c5fe">rule/whitespace.js</text>
</g>
<!-- rule/index.js&#45;&gt;rule/whitespace.js -->
<g id="edge10" class="edge">
<title>rule/index.js:&#45;&gt;rule/whitespace.js:</title>
<path fill="none" stroke="#757575" d="M497.22,-392.52C513.21,-381.33 538.58,-364.37 562,-352.19 569.13,-348.48 576.92,-344.92 584.52,-341.68"/>
<polygon fill="#757575" stroke="#757575" points="586.07,-344.83 593.98,-337.78 583.4,-338.36 586.07,-344.83"/>
</g>
<!-- rule/pattern.js&#45;&gt;util.js -->
<g id="edge11" class="edge">
<title>rule/pattern.js:&#45;&gt;util.js:</title>
<path fill="none" stroke="#757575" d="M832.53,-403.19C842.75,-403.19 853.33,-403.19 862.96,-403.19"/>
<polygon fill="#757575" stroke="#757575" points="862.98,-406.69 872.98,-403.19 862.98,-399.69 862.98,-406.69"/>
</g>
<!-- rule/range.js&#45;&gt;util.js -->
<g id="edge12" class="edge">
<title>rule/range.js:&#45;&gt;util.js:</title>
<path fill="none" stroke="#757575" d="M815.62,-373.72C830.46,-378.97 848.07,-385.19 863.27,-390.56"/>
<polygon fill="#757575" stroke="#757575" points="862.26,-393.92 872.85,-393.95 864.59,-387.32 862.26,-393.92"/>
</g>
<!-- rule/required.js&#45;&gt;util.js -->
<g id="edge13" class="edge">
<title>rule/required.js:&#45;&gt;util.js:</title>
<path fill="none" stroke="#757575" d="M815.62,-432.66C830.46,-427.41 848.07,-421.19 863.27,-415.82"/>
<polygon fill="#757575" stroke="#757575" points="864.59,-419.06 872.85,-412.43 862.26,-412.46 864.59,-419.06"/>
</g>
<!-- rule/type.js&#45;&gt;util.js -->
<g id="edge15" class="edge">
<title>rule/type.js:&#45;&gt;util.js:</title>
<path fill="none" stroke="#757575" d="M669.36,-486.67C713.23,-489.57 783.12,-489 837,-464.19 856.65,-455.14 873.72,-437.12 884.95,-423"/>
<polygon fill="#757575" stroke="#757575" points="887.9,-424.9 891.16,-414.82 882.32,-420.67 887.9,-424.9"/>
</g>
<!-- rule/type.js&#45;&gt;rule/required.js -->
<g id="edge14" class="edge">
<title>rule/type.js:&#45;&gt;rule/required.js:</title>
<path fill="none" stroke="#757575" d="M669.04,-471.91C686.12,-467.68 706.18,-462.71 724.56,-458.16"/>
<polygon fill="#757575" stroke="#757575" points="725.42,-461.56 734.28,-455.76 723.73,-454.76 725.42,-461.56"/>
</g>
<!-- rule/whitespace.js&#45;&gt;util.js -->
<g id="edge16" class="edge">
<title>rule/whitespace.js:&#45;&gt;util.js:</title>
<path fill="none" stroke="#757575" d="M691.29,-319.47C734.34,-317.58 791.39,-320.36 837,-341.19 856.95,-350.3 874.09,-368.8 885.25,-383.23"/>
<polygon fill="#757575" stroke="#757575" points="882.65,-385.6 891.41,-391.57 888.29,-381.44 882.65,-385.6"/>
</g>
<!-- validator/any.js&#45;&gt;util.js -->
<g id="edge18" class="edge">
<title>validator/any.js:&#45;&gt;util.js:</title>
<path fill="none" stroke="#757575" d="M382.59,-595.38C498.48,-607.57 767.57,-629.1 837,-575.19 884.26,-538.5 895.54,-462.58 898.2,-425.1"/>
<polygon fill="#757575" stroke="#757575" points="901.71,-424.97 898.78,-414.79 894.72,-424.58 901.71,-424.97"/>
</g>
<!-- validator/any.js&#45;&gt;rule/index.js -->
<g id="edge17" class="edge">
<title>validator/any.js:&#45;&gt;rule/index.js:</title>
<path fill="none" stroke="#757575" d="M382.56,-577.83C388.13,-575.25 393.42,-572.08 398,-568.19 442.79,-530.18 465.14,-461.47 474.1,-426.28"/>
<polygon fill="#757575" stroke="#757575" points="477.61,-426.65 476.55,-416.11 470.8,-425.01 477.61,-426.65"/>
</g>
<!-- validator/array.js&#45;&gt;util.js -->
<g id="edge20" class="edge">
<title>validator/array.js:&#45;&gt;util.js:</title>
<path fill="none" stroke="#757575" d="M387.08,-556.13C504.75,-570.95 766.12,-597.04 837,-547.19 877.61,-518.63 891.82,-457.68 896.64,-424.98"/>
<polygon fill="#757575" stroke="#757575" points="900.11,-425.43 897.94,-415.06 893.17,-424.53 900.11,-425.43"/>
</g>
<!-- validator/array.js&#45;&gt;rule/index.js -->
<g id="edge19" class="edge">
<title>validator/array.js:&#45;&gt;rule/index.js:</title>
<path fill="none" stroke="#757575" d="M381.39,-536.56C387.3,-534.02 392.99,-530.94 398,-527.19 433.77,-500.45 458.44,-452.93 470.5,-425.44"/>
<polygon fill="#757575" stroke="#757575" points="473.84,-426.55 474.5,-415.97 467.39,-423.82 473.84,-426.55"/>
</g>
<!-- validator/boolean.js&#45;&gt;util.js -->
<g id="edge22" class="edge">
<title>validator/boolean.js:&#45;&gt;util.js:</title>
<path fill="none" stroke="#757575" d="M397.29,-518.18C518.63,-536.23 765.73,-565.93 837,-521.19 871.26,-499.68 887.64,-452.53 894.58,-424.78"/>
<polygon fill="#757575" stroke="#757575" points="898.03,-425.4 896.87,-414.86 891.21,-423.82 898.03,-425.4"/>
</g>
<!-- validator/boolean.js&#45;&gt;rule/index.js -->
<g id="edge21" class="edge">
<title>validator/boolean.js:&#45;&gt;rule/index.js:</title>
<path fill="none" stroke="#757575" d="M377.82,-495.68C384.84,-493.08 391.78,-489.95 398,-486.19 425.06,-469.84 449.57,-442.44 464.37,-423.86"/>
<polygon fill="#757575" stroke="#757575" points="467.28,-425.82 470.64,-415.77 461.75,-421.53 467.28,-425.82"/>
</g>
<!-- validator/date.js&#45;&gt;util.js -->
<g id="edge24" class="edge">
<title>validator/date.js:&#45;&gt;util.js:</title>
<path fill="none" stroke="#757575" d="M385.69,-477.44C432.7,-486.17 501.4,-497.54 562,-502.19 683.98,-511.56 730.64,-550.64 837,-490.19 863.05,-475.38 880.91,-444.61 890.55,-423.93"/>
<polygon fill="#757575" stroke="#757575" points="893.79,-425.26 894.62,-414.7 887.38,-422.44 893.79,-425.26"/>
</g>
<!-- validator/date.js&#45;&gt;rule/index.js -->
<g id="edge23" class="edge">
<title>validator/date.js:&#45;&gt;rule/index.js:</title>
<path fill="none" stroke="#757575" d="M371,-454.68C380.01,-451.86 389.4,-448.64 398,-445.19 415.56,-438.13 434.47,-428.68 449.6,-420.62"/>
<polygon fill="#757575" stroke="#757575" points="451.35,-423.66 458.48,-415.83 448.02,-417.5 451.35,-423.66"/>
</g>
<!-- validator/enum.js&#45;&gt;util.js -->
<g id="edge26" class="edge">
<title>validator/enum.js:&#45;&gt;util.js:</title>
<path fill="none" stroke="#757575" d="M373.03,-372.57C381.46,-369.85 390.11,-366.71 398,-363.19 475.77,-328.53 479.98,-287.03 562,-264.19 679.94,-231.35 736.41,-210.4 837,-280.19 871.52,-304.14 887.86,-353.14 894.71,-381.54"/>
<polygon fill="#757575" stroke="#757575" points="891.37,-382.65 896.96,-391.65 898.21,-381.13 891.37,-382.65"/>
</g>
<!-- validator/enum.js&#45;&gt;rule/index.js -->
<g id="edge25" class="edge">
<title>validator/enum.js:&#45;&gt;rule/index.js:</title>
<path fill="none" stroke="#757575" d="M389.15,-392.21C400.5,-393.72 412.33,-395.3 423.54,-396.8"/>
<polygon fill="#757575" stroke="#757575" points="423.25,-400.29 433.62,-398.14 424.17,-393.35 423.25,-400.29"/>
</g>
<!-- validator/float.js&#45;&gt;util.js -->
<g id="edge28" class="edge">
<title>validator/float.js:&#45;&gt;util.js:</title>
<path fill="none" stroke="#757575" d="M380.46,-331.56C386.66,-329.01 392.67,-325.93 398,-322.19 419.84,-306.88 412.39,-289.81 434,-274.19 507,-221.44 763.3,-179.42 837,-231.19 886.17,-265.73 896.52,-343.25 898.58,-381.29"/>
<polygon fill="#757575" stroke="#757575" points="895.08,-381.47 898.98,-391.32 902.08,-381.19 895.08,-381.47"/>
</g>
<!-- validator/float.js&#45;&gt;rule/index.js -->
<g id="edge27" class="edge">
<title>validator/float.js:&#45;&gt;rule/index.js:</title>
<path fill="none" stroke="#757575" d="M373.58,-354.79C381.79,-357.3 390.23,-360.13 398,-363.19 415.73,-370.18 434.78,-379.71 449.95,-387.82"/>
<polygon fill="#757575" stroke="#757575" points="448.39,-390.96 458.85,-392.66 451.73,-384.81 448.39,-390.96"/>
</g>
<!-- validator/integer.js&#45;&gt;util.js -->
<g id="edge45" class="edge">
<title>validator/integer.js:&#45;&gt;util.js:</title>
<path fill="none" stroke="#757575" d="M380.49,-290.61C386.68,-288.06 392.69,-284.95 398,-281.19 420.05,-265.57 411.29,-246.83 434,-232.19 509.46,-183.56 764.69,-150.98 837,-204.19 893.72,-245.93 900.03,-339.21 899.8,-381.55"/>
<polygon fill="#757575" stroke="#757575" points="896.3,-381.54 899.61,-391.6 903.3,-381.67 896.3,-381.54"/>
</g>
<!-- validator/integer.js&#45;&gt;rule/index.js -->
<g id="edge44" class="edge">
<title>validator/integer.js:&#45;&gt;rule/index.js:</title>
<path fill="none" stroke="#757575" d="M380,-313.73C386.27,-316.08 392.43,-318.87 398,-322.19 425.17,-338.36 449.65,-365.8 464.42,-384.44"/>
<polygon fill="#757575" stroke="#757575" points="461.8,-386.78 470.67,-392.56 467.34,-382.5 461.8,-386.78"/>
</g>
<!-- validator/method.js&#45;&gt;util.js -->
<g id="edge47" class="edge">
<title>validator/method.js:&#45;&gt;util.js:</title>
<path fill="none" stroke="#757575" d="M380.03,-249.6C386.36,-247.04 392.53,-243.94 398,-240.19 419.41,-225.51 411.66,-207.42 434,-194.19 588.3,-102.81 694.96,-64.72 837,-174.19 870.2,-199.78 889.81,-329.47 896.44,-381.52"/>
<polygon fill="#757575" stroke="#757575" points="892.99,-382.16 897.69,-391.66 899.94,-381.3 892.99,-382.16"/>
</g>
<!-- validator/method.js&#45;&gt;rule/index.js -->
<g id="edge46" class="edge">
<title>validator/method.js:&#45;&gt;rule/index.js:</title>
<path fill="none" stroke="#757575" d="M383.15,-272.77C388.42,-275.08 393.48,-277.86 398,-281.19 433.95,-307.69 458.55,-355.3 470.56,-382.87"/>
<polygon fill="#757575" stroke="#757575" points="467.44,-384.49 474.54,-392.36 473.9,-381.79 467.44,-384.49"/>
</g>
<!-- validator/number.js&#45;&gt;util.js -->
<g id="edge49" class="edge">
<title>validator/number.js:&#45;&gt;util.js:</title>
<path fill="none" stroke="#757575" d="M381.43,-208.62C387.33,-206.07 393.01,-202.97 398,-199.19 421.6,-181.34 410.21,-160.78 434,-143.19 506.2,-89.79 768.35,-55.29 837,-113.19 878.22,-147.95 893.49,-319.98 897.68,-381.37"/>
<polygon fill="#757575" stroke="#757575" points="894.2,-381.74 898.34,-391.49 901.19,-381.28 894.2,-381.74"/>
</g>
<!-- validator/number.js&#45;&gt;rule/index.js -->
<g id="edge48" class="edge">
<title>validator/number.js:&#45;&gt;rule/index.js:</title>
<path fill="none" stroke="#757575" d="M384.62,-231.7C389.43,-234.03 393.98,-236.83 398,-240.19 443.26,-278.09 465.5,-347.41 474.28,-382.55"/>
<polygon fill="#757575" stroke="#757575" points="470.97,-383.75 476.68,-392.67 477.78,-382.13 470.97,-383.75"/>
</g>
<!-- validator/object.js&#45;&gt;util.js -->
<g id="edge51" class="edge">
<title>validator/object.js:&#45;&gt;util.js:</title>
<path fill="none" stroke="#757575" d="M381.43,-167.62C387.33,-165.07 393.01,-161.97 398,-158.19 421.6,-140.34 409.33,-118.52 434,-102.19 517.97,-46.6 822.76,-68.42 837,-80.19 883.71,-118.78 895.58,-315.37 898.28,-381.47"/>
<polygon fill="#757575" stroke="#757575" points="894.79,-381.72 898.66,-391.58 901.78,-381.45 894.79,-381.72"/>
</g>
<!-- validator/object.js&#45;&gt;rule/index.js -->
<g id="edge50" class="edge">
<title>validator/object.js:&#45;&gt;rule/index.js:</title>
<path fill="none" stroke="#757575" d="M385.59,-190.71C390.09,-193.04 394.31,-195.83 398,-199.19 452.7,-248.97 470.98,-340.44 476.65,-382.27"/>
<polygon fill="#757575" stroke="#757575" points="473.21,-382.96 477.91,-392.45 480.15,-382.1 473.21,-382.96"/>
</g>
<!-- validator/pattern.js&#45;&gt;util.js -->
<g id="edge53" class="edge">
<title>validator/pattern.js:&#45;&gt;util.js:</title>
<path fill="none" stroke="#757575" d="M342.12,-126.68C360.97,-110.94 397.45,-83.26 434,-71.19 604.1,-15 700.2,51.46 837,-64.19 885.69,-105.35 896.28,-312.95 898.46,-381.32"/>
<polygon fill="#757575" stroke="#757575" points="894.97,-381.5 898.75,-391.39 901.96,-381.3 894.97,-381.5"/>
</g>
<!-- validator/pattern.js&#45;&gt;rule/index.js -->
<g id="edge52" class="edge">
<title>validator/pattern.js:&#45;&gt;rule/index.js:</title>
<path fill="none" stroke="#757575" d="M386.47,-149.84C390.67,-152.15 394.59,-154.9 398,-158.19 462.41,-220.33 475.63,-334.55 478.32,-382.3"/>
<polygon fill="#757575" stroke="#757575" points="474.83,-382.62 478.79,-392.45 481.82,-382.3 474.83,-382.62"/>
</g>
<!-- validator/regexp.js&#45;&gt;util.js -->
<g id="edge55" class="edge">
<title>validator/regexp.js:&#45;&gt;util.js:</title>
<path fill="none" stroke="#757575" d="M364.06,-723.79C457.3,-752.18 712.78,-813.5 837,-679.19 871.62,-641.76 890.87,-483.45 896.91,-425"/>
<polygon fill="#757575" stroke="#757575" points="900.42,-425 897.94,-414.7 893.46,-424.3 900.42,-425"/>
</g>
<!-- validator/regexp.js&#45;&gt;rule/index.js -->
<g id="edge54" class="edge">
<title>validator/regexp.js:&#45;&gt;rule/index.js:</title>
<path fill="none" stroke="#757575" d="M385.32,-700.58C389.99,-698.04 394.32,-694.95 398,-691.19 471.59,-616.09 479.4,-479.51 479.48,-426.27"/>
<polygon fill="#757575" stroke="#757575" points="482.98,-425.93 479.4,-415.96 475.98,-425.98 482.98,-425.93"/>
</g>
<!-- validator/required.js&#45;&gt;rule/index.js -->
<g id="edge56" class="edge">
<title>validator/required.js:&#45;&gt;rule/index.js:</title>
<path fill="none" stroke="#757575" d="M398.29,-415.49C406.91,-414.28 415.64,-413.06 424,-411.89"/>
<polygon fill="#757575" stroke="#757575" points="424.58,-415.34 434,-410.49 423.61,-408.41 424.58,-415.34"/>
</g>
<!-- validator/string.js&#45;&gt;util.js -->
<g id="edge58" class="edge">
<title>validator/string.js:&#45;&gt;util.js:</title>
<path fill="none" stroke="#757575" d="M368.16,-682.76C462.37,-707.94 703.69,-756.33 837,-636.19 868.65,-607.67 889.17,-477.18 896.25,-424.92"/>
<polygon fill="#757575" stroke="#757575" points="899.75,-425.13 897.59,-414.75 892.81,-424.21 899.75,-425.13"/>
</g>
<!-- validator/string.js&#45;&gt;rule/index.js -->
<g id="edge57" class="edge">
<title>validator/string.js:&#45;&gt;rule/index.js:</title>
<path fill="none" stroke="#757575" d="M384.82,-659.59C389.65,-657.05 394.15,-653.95 398,-650.19 462,-587.63 475.44,-473.64 478.26,-426.01"/>
<polygon fill="#757575" stroke="#757575" points="481.76,-426.06 478.75,-415.9 474.77,-425.72 481.76,-426.06"/>
</g>
<!-- validator/type.js&#45;&gt;util.js -->
<g id="edge60" class="edge">
<title>validator/type.js:&#45;&gt;util.js:</title>
<path fill="none" stroke="#757575" d="M385.13,-635.61C502.85,-645.7 770.21,-661.59 837,-605.19 891.3,-559.34 898.92,-467.2 899.42,-425.09"/>
<polygon fill="#757575" stroke="#757575" points="902.92,-424.84 899.4,-414.84 895.92,-424.85 902.92,-424.84"/>
</g>
<!-- validator/type.js&#45;&gt;rule/index.js -->
<g id="edge59" class="edge">
<title>validator/type.js:&#45;&gt;rule/index.js:</title>
<path fill="none" stroke="#757575" d="M384.25,-618.52C389.25,-616 393.95,-612.93 398,-609.19 452.37,-559.05 470.81,-467.77 476.59,-426.05"/>
<polygon fill="#757575" stroke="#757575" points="480.09,-426.25 477.87,-415.89 473.14,-425.37 480.09,-426.25"/>
</g>
</g>
</svg>
